<?xml version="1.0" encoding="UTF-8"?><svg version="1.1" viewBox="0 0 24 24" xmlns="http://www.w3.org/2000/svg" xmlns:xlink="http://www.w3.org/1999/xlink"><!--Generated by IJSVG (https://github.com/iconjar/IJSVG)--><g stroke-linecap="round" stroke-width="1.5" stroke="#323232" fill="none" stroke-linejoin="round"><path d="M9.708,18.344v0.365c0,1.265 1.026,2.291 2.292,2.291v0c1.266,0 2.292,-1.026 2.292,-2.292v-0.365"></path><path d="M13.833,5.751v-0.918c0,-1.012 -0.82,-1.833 -1.833,-1.833v0c-1.013,0 -1.833,0.821 -1.833,1.833v0.918"></path><path d="M6.563,10.188v0c0,-2.503 2.029,-4.531 4.531,-4.531h1.813c2.503,0 4.531,2.029 4.531,4.531v0v2.797c0,0.53 0.211,1.039 0.586,1.414l0.641,0.641c0.375,0.375 0.586,0.884 0.586,1.414v0c0,1.044 -0.846,1.89 -1.89,1.89h-10.721c-1.044,0 -1.89,-0.846 -1.89,-1.89v0c0,-0.53 0.211,-1.039 0.586,-1.414l0.641,-0.641c0.375,-0.375 0.586,-0.884 0.586,-1.414l-8.88178e-16,-2.797Z"></path></g><path fill="none" d="M0,0h24v24h-24Z"></path></svg>