<svg xmlns="http://www.w3.org/2000/svg" width="16" height="16" viewBox="0 0 16 16"><g transform="translate(17067 12467)"><g transform="translate(-17067 -12467)"><g transform="translate(1.333 2.667)"><g transform="translate(0 0)"><path d="M3,6.32H3a1.319,1.319,0,0,0,.579,1.093l4.43,3a2.963,2.963,0,0,0,3.324,0l4.419-3a1.316,1.316,0,0,0,.58-1.092V6.32A1.32,1.32,0,0,0,15.014,5H4.32A1.32,1.32,0,0,0,3,6.32Z" transform="translate(-3 -5)" fill="none" stroke="#444" stroke-linecap="round" stroke-linejoin="round" stroke-width="1.5"/><path d="M3,7v7.408a1.482,1.482,0,0,0,1.482,1.482H14.852a1.482,1.482,0,0,0,1.482-1.482V7" transform="translate(-3 -5.518)" fill="none" stroke="#444" stroke-linecap="round" stroke-linejoin="round" stroke-width="1.5"/><path d="M3.586,16.822l4.548-4.548" transform="translate(-3.152 -6.886)" fill="none" stroke="#444" stroke-linecap="round" stroke-linejoin="round" stroke-width="1.5"/><path d="M14.281,12.281l4.541,4.541" transform="translate(-5.925 -6.888)" fill="none" stroke="#444" stroke-linecap="round" stroke-linejoin="round" stroke-width="1.5"/></g></g><g transform="translate(0 0)"><path d="M0,0H16V16H0Z" fill="none"/></g></g></g></svg>