<svg xmlns="http://www.w3.org/2000/svg" width="16" height="16" viewBox="0 0 16 16"><g transform="translate(17034 12473)"><path d="M0,0H16V16H0Z" transform="translate(-17034 -12473)" fill="none"/><g transform="translate(-17030.666 -12471.667)"><path d="M13.407,16.333H7.481A1.481,1.481,0,0,1,6,14.852V4.481A1.481,1.481,0,0,1,7.481,3h5.926a1.481,1.481,0,0,1,1.481,1.481v10.37A1.481,1.481,0,0,1,13.407,16.333Z" transform="translate(-6 -3)" fill="none" stroke="#444" stroke-linecap="round" stroke-linejoin="round" stroke-width="1.5"/><path d="M11.935,17.25a.184.184,0,1,0,.132.054.185.185,0,0,0-.132-.054" transform="translate(-7.491 -6.695)" fill="none" stroke="#444" stroke-linecap="round" stroke-linejoin="round" stroke-width="1.5"/><path d="M10.75,6H12.6" transform="translate(-7.232 -3.778)" fill="none" stroke="#444" stroke-linecap="round" stroke-linejoin="round" stroke-width="1.5"/></g></g></svg>