<svg xmlns="http://www.w3.org/2000/svg" width="24" height="24" viewBox="0 0 24 24"><g transform="translate(14386 3617)"><g transform="translate(-14386 -3617)"><path d="M0,0H24V24H0Z" fill="none"/><path d="M18,21H6a3,3,0,0,1-3-3V6A3,3,0,0,1,6,3H18a3,3,0,0,1,3,3V18A3,3,0,0,1,18,21Z" fill="none" stroke="#4a90e2" stroke-linecap="round" stroke-linejoin="round" stroke-width="1.5"/><path d="M3,17.486l4.612-4.612a1,1,0,0,1,1.414,0l1.406,1.406L15.009,9.7a1,1,0,0,1,1.414,0L21,14.281" fill="none" stroke="#4a90e2" stroke-linecap="round" stroke-linejoin="round" stroke-width="1.5"/><path d="M8.515,7.407a.375.375,0,1,1-.53,0,.375.375,0,0,1,.53,0" fill="none" stroke="#4a90e2" stroke-linecap="round" stroke-linejoin="round" stroke-width="1.5"/></g></g></svg>