<?xml version="1.0" encoding="UTF-8"?><svg version="1.1" viewBox="0 0 24 24" xmlns="http://www.w3.org/2000/svg" xmlns:xlink="http://www.w3.org/1999/xlink"><!--Generated by IJSVG (https://github.com/iconjar/IJSVG)--><g fill="none"><path d="M0,0h24v24h-24Z"></path><path stroke="#323232" stroke-linecap="round" stroke-linejoin="round" stroke-width="1.5" d="M13.9092,10.0908c1.05442,1.05442 1.05442,2.76396 0,3.81838c-1.05442,1.05442 -2.76396,1.05442 -3.81838,0c-1.05442,-1.05442 -1.05442,-2.76396 -1.77636e-15,-3.81838c1.05442,-1.05442 2.76396,-1.05442 3.81838,-1.77636e-15"></path><path stroke="#323232" stroke-linecap="round" stroke-linejoin="round" stroke-width="1.5" d="M5.25,12c0,0.297 0.027,0.594 0.063,0.882l-1.588,1.242c-0.352,0.276 -0.448,0.769 -0.224,1.156l1.412,2.443c0.223,0.387 0.697,0.55 1.112,0.384l1.422,-0.571c0.281,-0.113 0.594,-0.068 0.846,0.099c0.22,0.146 0.448,0.28 0.684,0.4c0.27,0.137 0.466,0.382 0.509,0.682l0.217,1.513c0.063,0.442 0.442,0.77 0.888,0.77h2.817c0.446,0 0.825,-0.328 0.888,-0.77l0.217,-1.512c0.043,-0.3 0.241,-0.547 0.512,-0.683c0.235,-0.118 0.462,-0.251 0.681,-0.396c0.254,-0.168 0.568,-0.216 0.85,-0.102l1.419,0.57c0.414,0.166 0.888,0.003 1.112,-0.384l1.412,-2.443c0.224,-0.387 0.128,-0.881 -0.224,-1.156l-1.588,-1.242c0.036,-0.288 0.063,-0.585 0.063,-0.882c0,-0.297 -0.027,-0.594 -0.063,-0.882l1.588,-1.242c0.352,-0.276 0.448,-0.769 0.224,-1.156l-1.412,-2.443c-0.223,-0.387 -0.697,-0.55 -1.112,-0.384l-1.419,0.57c-0.282,0.113 -0.596,0.066 -0.85,-0.102c-0.219,-0.145 -0.446,-0.278 -0.681,-0.396c-0.271,-0.136 -0.469,-0.383 -0.512,-0.683l-0.216,-1.512c-0.063,-0.442 -0.442,-0.77 -0.888,-0.77h-2.817c-0.446,0 -0.825,0.328 -0.888,0.77l-0.218,1.514c-0.043,0.299 -0.24,0.545 -0.509,0.682c-0.236,0.12 -0.464,0.255 -0.684,0.4c-0.253,0.166 -0.566,0.211 -0.847,0.098l-1.421,-0.571c-0.415,-0.166 -0.889,-0.003 -1.112,0.384l-1.412,2.443c-0.224,0.387 -0.128,0.881 0.224,1.156l1.588,1.242c-0.036,0.288 -0.063,0.585 -0.063,0.882Z"></path></g></svg>