<svg xmlns="http://www.w3.org/2000/svg" width="24" height="24" viewBox="0 0 24 24"><g transform="translate(14494 3461)"><g transform="translate(-14494 -3461)"><path d="M10.856,13.144A12.634,12.634,0,0,1,8.218,9.335a.749.749,0,0,1,.166-.827L9.2,7.69a1.53,1.53,0,0,0,.085-2.206L8.114,4.31a2,2,0,0,0-2.828,0l-.652.652a3.194,3.194,0,0,0-.85,2.87,15.715,15.715,0,0,0,4.461,7.923,15.715,15.715,0,0,0,7.923,4.461,3.194,3.194,0,0,0,2.87-.85l.651-.651a2,2,0,0,0,0-2.828l-1.173-1.173a1.5,1.5,0,0,0-2.121,0l-.9.9a.749.749,0,0,1-.827.166,12.66,12.66,0,0,1-3.809-2.64Z" fill="none" stroke="#4a90e2" stroke-linecap="round" stroke-linejoin="round" stroke-width="1.5"/><path d="M0,0H24V24H0Z" fill="none"/></g></g></svg>