<svg xmlns="http://www.w3.org/2000/svg" width="19.5" height="15.5" viewBox="0 0 19.5 15.5"><g transform="translate(14421.75 3469.75)"><g transform="translate(-14424 -3474)"><path d="M3,6.782H3a1.781,1.781,0,0,0,.782,1.475L9.763,12.31a4,4,0,0,0,4.488,0l5.966-4.044A1.777,1.777,0,0,0,21,6.792v-.01A1.782,1.782,0,0,0,19.218,5H4.782A1.782,1.782,0,0,0,3,6.782Z" fill="none" stroke="#4a90e2" stroke-linecap="round" stroke-linejoin="round" stroke-width="1.5"/><path d="M3,7V17a2,2,0,0,0,2,2H19a2,2,0,0,0,2-2V7" fill="none" stroke="#4a90e2" stroke-linecap="round" stroke-linejoin="round" stroke-width="1.5"/><path d="M3.586,18.414l6.14-6.14" fill="none" stroke="#4a90e2" stroke-linecap="round" stroke-linejoin="round" stroke-width="1.5"/><path d="M14.281,12.281l6.13,6.13" fill="none" stroke="#4a90e2" stroke-linecap="round" stroke-linejoin="round" stroke-width="1.5"/></g></g></svg>