<svg xmlns="http://www.w3.org/2000/svg" width="24" height="24" viewBox="0 0 24 24"><g transform="translate(14457 3486)"><g transform="translate(-14457 -3486)"><path d="M0,0H24V24H0Z" fill="none"/><path d="M16,21H8a2,2,0,0,1-2-2V5A2,2,0,0,1,8,3h8a2,2,0,0,1,2,2V19A2,2,0,0,1,16,21Z" fill="none" stroke="#4a90e2" stroke-linecap="round" stroke-linejoin="round" stroke-width="1.5"/><path d="M12,17.25a.25.25,0,1,0,.251.25A.249.249,0,0,0,12,17.25" fill="none" stroke="#4a90e2" stroke-linecap="round" stroke-linejoin="round" stroke-width="1.5"/><path d="M10.75,6h2.5" fill="none" stroke="#4a90e2" stroke-linecap="round" stroke-linejoin="round" stroke-width="1.5"/></g></g></svg>