<?xml version="1.0" encoding="UTF-8"?><svg version="1.1" viewBox="0 0 24 24" xmlns="http://www.w3.org/2000/svg" xmlns:xlink="http://www.w3.org/1999/xlink"><!--Generated by IJSVG (https://github.com/iconjar/IJSVG)--><g fill="none"><path d="M0,0h24v24h-24v-24Z"></path><path stroke="#323232" stroke-linecap="round" stroke-linejoin="round" stroke-width="1.5" d="M12,21v0c-4.971,0 -9,-4.029 -9,-9v0c0,-4.971 4.029,-9 9,-9v0c4.971,0 9,4.029 9,9v0c0,4.971 -4.029,9 -9,9Z"></path><path stroke="#323232" stroke-linecap="round" stroke-linejoin="round" stroke-width="1.5" d="M13.591,7.65901c0.87868,0.87868 0.87868,2.3033 0,3.18198c-0.87868,0.87868 -2.3033,0.87868 -3.18198,0c-0.87868,-0.87868 -0.87868,-2.3033 0,-3.18198c0.87868,-0.87868 2.3033,-0.87868 3.18198,0"></path><path stroke="#323232" stroke-linecap="round" stroke-linejoin="round" stroke-width="1.5" d="M16.321,16.541c-0.221,-1.389 -1.415,-2.453 -2.865,-2.453h-2.912c-1.451,0 -2.644,1.064 -2.865,2.453"></path></g></svg>