<svg xmlns="http://www.w3.org/2000/svg" width="36" height="30" viewBox="0 0 36 30">
  <g id="cloud-computing" transform="translate(0 -4.5)">
    <path id="Path_10058" data-name="Path 10058" d="M30.743,32.329a1.3,1.3,0,0,0,.922-2.227l-5.219-5.219a1.3,1.3,0,0,0-.2-.163c-.033-.022-.069-.037-.1-.056a1.267,1.267,0,0,0-.121-.064,1.231,1.231,0,0,0-.134-.042c-.037-.011-.072-.025-.11-.033a1.3,1.3,0,0,0-.511,0,1.059,1.059,0,0,0-.11.033.756.756,0,0,0-.256.106c-.034.019-.07.034-.1.055a1.3,1.3,0,0,0-.2.163L19.381,30.1a1.3,1.3,0,0,0,1.846,1.845l2.992-2.992V40.81a1.3,1.3,0,1,0,2.61,0V28.955l2.992,2.992A1.3,1.3,0,0,0,30.743,32.329Z" transform="translate(-6.886 -7.615)" fill="#e8e8e8"/>
    <path id="Path_10059" data-name="Path 10059" d="M30.751,14.635a11.974,11.974,0,0,0-3.011,0,.634.634,0,1,1-.194-1.253,12.45,12.45,0,0,1,2.625-.079,9.65,9.65,0,0,0-9.545-8.8,10.232,10.232,0,0,0-7.9,3.886,5.662,5.662,0,0,1,2.057,4.356.643.643,0,0,1-1.286,0,4.422,4.422,0,0,0-2.063-3.725,4.545,4.545,0,0,0-.451-.251c-.044-.022-.089-.044-.135-.064a4.417,4.417,0,0,0-.537-.2l-.068-.017a4.574,4.574,0,0,0-.507-.112l-.15-.023A4.655,4.655,0,0,0,9,8.3a4.475,4.475,0,0,0-4.5,4.438c0,.052,0,.1.008.155l.008.133-.006.1c0,.082-.01.164-.01.245v.4l-.365.172A7.527,7.527,0,0,0,0,20.447a6.932,6.932,0,0,0,6.972,6.876H16.09V24.57l-.753.742a2.6,2.6,0,0,1-3.637,0,2.511,2.511,0,0,1,0-3.586l5.143-5.072h0a2.6,2.6,0,0,1,.392-.316c.063-.041.132-.07.2-.106a2.492,2.492,0,0,1,.246-.127,2.523,2.523,0,0,1,.261-.08c.073-.021.143-.049.219-.064a2.614,2.614,0,0,1,1.007,0,2.276,2.276,0,0,1,.219.064,2.524,2.524,0,0,1,.261.08,2.637,2.637,0,0,1,.246.127c.066.036.134.064.2.106a2.566,2.566,0,0,1,.392.316h0l5.143,5.072a2.511,2.511,0,0,1,0,3.586,2.6,2.6,0,0,1-3.637,0l-.753-.742v2.753h1.494c.038,0,.075,0,.112-.006l.127-.007.174.007c.037,0,.074.006.112.006h6.3A6.41,6.41,0,0,0,36,20.966,6.522,6.522,0,0,0,30.751,14.635Z" fill="#e8e8e8"/>
  </g>
</svg>
